<?xml version="1.0" encoding="UTF-8"?>
<svg width="676px" height="289px" viewBox="0 0 676 289" version="1.1" xmlns="http://www.w3.org/2000/svg" xmlns:xlink="http://www.w3.org/1999/xlink">
    <!-- Generator: Sketch 42 (36781) - http://www.bohemiancoding.com/sketch -->
    <title>カモタイプ-path</title>
    <desc>Created with Sketch.</desc>
    <defs>
        <radialGradient cx="78.2466352%" cy="24.6560778%" fx="78.2466352%" fy="24.6560778%" r="77.7822921%" id="radialGradient-1">
            <stop stop-color="#27DEFE" offset="0%"></stop>
            <stop stop-color="#859CEB" offset="100%"></stop>
        </radialGradient>
    </defs>
    <g id="Page-1" stroke="none" stroke-width="1" fill="none" fill-rule="evenodd">
        <path d="M562.20475,0.0612948078 C592.749656,1.6437422 618.203744,27.5958795 618.203744,39.6224797 C618.203744,51.6490798 612.476574,56.396422 625.839971,63.67568 C639.203367,71.2714275 699.975003,97.5400543 665.611984,97.5400543 C631.567141,97.5400543 611.20387,83.6145172 599.113178,90.5772857 C587.022486,97.5400543 575.886323,99.1225017 575.886323,111.149102 C575.886323,123.175702 580.658964,153.242203 587.022486,164.635824 C593.386008,176.029445 594.02236,226.667762 566.659216,242.808725 C539.614247,258.949688 520.841857,276.04012 478.206259,280.154484 C435.252485,284.268847 304.800283,284.268847 271.073616,284.268847 C237.665126,284.268847 154.621163,296.611936 139.030534,281.420441 C123.758081,266.228946 132.667012,252.619899 119.939968,244.707662 C107.212924,236.795425 57.8956277,201.032114 0.305753121,205.146477 C0.305753121,205.146477 110.712861,198.816687 126.30349,183.308703 C126.30349,183.308703 83.3497159,165.585292 37.8505332,165.585292 C37.8505332,165.585292 186.438773,142.48156 215.392798,142.48156 C215.392798,142.48156 329.299843,105.135802 419.025504,129.189002 C508.751165,153.242203 502.387643,148.81135 485.524309,98.8060122 C469.297328,49.117164 518.9328,-2.15413154 562.20475,0.0612948078 Z" id="カモタイプ-path" fill="url(#radialGradient-1)"></path>
    </g>
</svg>