<?xml version="1.0" encoding="UTF-8"?>
<svg width="528px" height="226px" viewBox="0 0 528 226" version="1.1" xmlns="http://www.w3.org/2000/svg" xmlns:xlink="http://www.w3.org/1999/xlink">
    <!-- Generator: Sketch 42 (36781) - http://www.bohemiancoding.com/sketch -->
    <title>カモタイプ-path</title>
    <desc>Created with Sketch.</desc>
    <defs>
        <linearGradient x1="50%" y1="0%" x2="50%" y2="100%" id="linearGradient-1">
            <stop stop-color="#3BB0C4" offset="0%"></stop>
            <stop stop-color="#2D59ED" offset="100%"></stop>
        </linearGradient>
    </defs>
    <g id="Page-1" stroke="none" stroke-width="1" fill="none" fill-rule="evenodd">
        <path d="M438.654034,0.593097224 C462.482706,1.82759506 482.339933,22.0733595 482.339933,31.4555431 C482.339933,40.8377266 477.872057,44.5412201 488.297101,50.2199102 C498.722145,56.1454998 546.131274,76.6381638 519.324018,76.6381638 C492.764977,76.6381638 476.879196,65.7745829 467.447013,71.2063733 C458.01483,76.6381638 449.327293,77.8726616 449.327293,87.2548452 C449.327293,96.6370287 453.050524,120.092488 458.01483,128.980872 C462.979137,137.869256 463.475568,177.373187 442.129049,189.965065 C421.030745,202.556943 406.386041,215.889519 373.125186,219.099214 C339.616116,222.308908 237.847828,222.308908 211.537003,222.308908 C185.474393,222.308908 120.69019,231.937991 108.527639,220.086812 C96.613303,208.235633 103.563332,197.618952 93.6347189,191.446462 C83.7061056,185.273973 45.2327287,157.374322 0.305753121,160.584017 C0.305753121,160.584017 86.4364742,155.646025 98.5990256,143.547946 C98.5990256,143.547946 65.0899555,129.721571 29.5951626,129.721571 C29.5951626,129.721571 145.511724,111.697902 168.099319,111.697902 C168.099319,111.697902 256.960409,82.5637534 326.957134,101.32812 C396.953858,120.092488 391.989551,116.635894 378.834138,77.6257621 C366.175156,38.8625301 404.896749,-1.13519974 438.654034,0.593097224 Z" id="カモタイプ-path" fill="url(#linearGradient-1)"></path>
    </g>
</svg>